<svg id="Layer_1" data-name="Layer 1" xmlns="http://www.w3.org/2000/svg" viewBox="0 0 612 792"><defs><style>.cls-1{fill:#fff;stroke:#0058b6;stroke-miterlimit:10;}.cls-2{fill:#0058b6;}</style></defs><title>logoSVG</title><path class="cls-1" d="M491.74,501.9c-2.95-9-7.87-16.88-13.38-24.46A261,261,0,0,0,443.54,439c-3-2.8-3.65-5.31-2.55-9.19,3.24-11.43,4.82-23.13,4.58-30.29,0-34.22-8.26-61.06-26.18-84.47-32.63-42.6-76-60.13-129-53.13-26.68,3.52-49.84,15.23-69.7,33.34-3,2.72-5.52,3.33-9.33,1.92-6.86-2.55-13.88-4.74-20.94-6.67-16.91-4.62-33.94-8.43-51.71-6.57-16.32,1.71-23.72,12.76-18.78,28.44a79.73,79.73,0,0,0,10.08,20c11.31,17.08,25.46,31.67,40.48,45.4,4.76,4.35,6.43,8.78,6.37,15.14-.33,37.48,12.83,69.81,39,96.47,41.76,42.47,107.09,51.94,159.45,23.43a11,11,0,0,1,10.32-.57A308.06,308.06,0,0,0,431.29,527c14.14,3.25,28.39,6.18,43,3.78C490.94,528,497,517.9,491.74,501.9Z"/><path class="cls-1" d="M178.64,354.13c-6.16-7.49-11.89-15.25-15.69-24.25-6.87-16.3-1.46-25.75,16-28,2-.26,4-.27,5.81-.38a136.42,136.42,0,0,1,20.95,2.78c3.41.71,3.73,2.19,1.63,4.74a134,134,0,0,0-24.08,44C182.33,356,181.06,357.08,178.64,354.13Z"/><path class="cls-1" d="M366.16,508.83A133.19,133.19,0,0,1,330,520a127.76,127.76,0,0,1-18.43,1.14c-64.37,0-117.49-46.59-126-110.69-.62-4.61-.8-9.29-1.07-13.94-.07-1.27-.34-2.9,1.09-3.6s2.44.7,3.41,1.5q15.18,12.63,31,24.4a779.07,779.07,0,0,0,144.62,84.8c.46.21.93.39,1.37.62,1.14.6,2.95.7,3,2.21S367.31,508.28,366.16,508.83Z"/><path class="cls-1" d="M396.8,488.2c-3.36,3.17-6.35,3.75-10.7,2.2-38.5-13.74-74.31-32.77-108.68-54.65-30.28-19.27-58.9-40.69-84.59-65.89-3.75-3.67-4.4-6.95-2.93-11.89,14.85-49.83,60.29-86,111.82-89.69,64.95-4.73,123.5,40.55,134.45,105.21a106.86,106.86,0,0,1,1.65,20.93C437.3,431.41,423.77,462.7,396.8,488.2Z"/><path class="cls-1" d="M443,500.84c-2.47.22-5,0-7.47,0-10.25.29-20.11-2-30-4.51-3.25-.82-3.9-2-1.28-4.52A134.83,134.83,0,0,0,435,447.4c1.22-2.86,2.51-4.39,5.19-1.24,6.8,8,13.14,16.32,17.52,25.95a39.24,39.24,0,0,1,1.62,4.18C463.87,490.28,457.73,499.57,443,500.84Z"/><path class="cls-1" d="M205.75,304.26a136.42,136.42,0,0,0-20.95-2.78c-1.83.11-3.84.12-5.81.38-17.5,2.27-22.91,11.72-16,28,3.8,9,9.53,16.76,15.69,24.25,2.42,2.95,3.69,1.87,4.66-1.11a134,134,0,0,1,24.08-44C209.48,306.45,209.16,305,205.75,304.26Z"/><path class="cls-2" d="M366,504.18c-.44-.23-.91-.41-1.37-.62A779.07,779.07,0,0,1,220,418.76q-15.89-11.73-31-24.4c-1-.8-1.91-2.23-3.41-1.5s-1.16,2.33-1.09,3.6c.27,4.65.45,9.33,1.07,13.94,8.54,64.1,61.66,110.72,126,110.69A127.76,127.76,0,0,0,330,520a133.19,133.19,0,0,0,36.19-11.12c1.15-.55,2.92-.88,2.84-2.44S367.11,504.78,366,504.18Z"/><path class="cls-2" d="M436.17,373.49c-10.95-64.66-69.5-109.94-134.45-105.21-51.53,3.74-97,39.86-111.82,89.69-1.47,4.94-.82,8.22,2.93,11.89,25.69,25.2,54.31,46.62,84.59,65.89,34.37,21.88,70.18,40.91,108.68,54.65,4.35,1.55,7.34,1,10.7-2.2,27-25.5,40.5-56.79,41-93.78A106.86,106.86,0,0,0,436.17,373.49Z"/><path class="cls-1" d="M457.69,472.11c-4.38-9.63-10.72-17.94-17.52-25.95-2.68-3.15-4-1.62-5.19,1.24a134.83,134.83,0,0,1-30.67,44.44c-2.62,2.53-2,3.7,1.28,4.52,9.85,2.48,19.71,4.8,30,4.51,2.49,0,5,.19,7.47,0,14.71-1.27,20.85-10.56,16.29-24.55A39.24,39.24,0,0,0,457.69,472.11Z"/><path d="M9.09-235.5c0-3.75-.84-4.59-4.59-4.59q-370.5.15-741,0c-3.75,0-4.59.84-4.59,4.59q.15,662.5,0,1325c0,3.75.84,4.59,4.59,4.59q370.5-.15,741,0c3.75,0,4.6-.84,4.59-4.59q-.15-331-.09-662Q9,96,9.09-235.5ZM-126,649H-632V204h506Z"/></svg>