<svg id="Layer_1" data-name="Layer 1" xmlns="http://www.w3.org/2000/svg" viewBox="0 0 1125 2436"><defs><style>.cls-1{fill:#fff;}.cls-2,.cls-4{fill:#7f7f7f;}.cls-3{fill:#7386d5;}.cls-4{font-size:59.31px;font-family:CenturyGothic-Italic, Century Gothic;font-style:italic;}.cls-5{fill:#5b6da5;}</style></defs><title>splashscreen_imageArtboard 6</title><rect class="cls-1" width="1125" height="2436"/><path class="cls-2" d="M286.31,1387.71H312.1v49q0,14.31,2,19.86a17.23,17.23,0,0,0,6.32,8.64,18.05,18.05,0,0,0,10.72,3.09,18.77,18.77,0,0,0,10.82-3,17.75,17.75,0,0,0,6.6-8.92q1.59-4.39,1.6-18.78v-49.8h25.5v43.07q0,26.63-4.2,36.44a39.78,39.78,0,0,1-15.14,18.36q-10,6.39-25.41,6.4-16.72,0-27.05-7.48t-14.53-20.83q-3-9.26-3-33.64Z"/><path class="cls-3" d="M476.17,1370.61l-19.38,17.1q-10.2-14.2-20.78-14.21a12.61,12.61,0,0,0-8.42,2.76,8,8,0,0,0-3.28,6.21,10.62,10.62,0,0,0,2.34,6.54q3.18,4.13,19.19,17.66,15,12.52,18.16,15.79,8,8,11.27,15.37a38.31,38.31,0,0,1,3.33,16q0,16.91-11.7,27.93t-30.49,11q-14.69,0-25.58-7.2T392.17,1463l22-13.26Q424.09,1468,437,1468a16.81,16.81,0,0,0,11.32-3.92c3.05-2.61,4.58-5.64,4.58-9.06a15.65,15.65,0,0,0-3.46-9.35q-3.46-4.67-15.26-14.29-22.46-18.31-29-28.26t-6.55-19.86q0-14.29,10.9-24.53t26.89-10.23a42.43,42.43,0,0,1,19.6,4.77Q465.31,1358,476.17,1370.61Z"/><path class="cls-3" d="M500.83,1348.46h25.32V1398a58.42,58.42,0,0,1,15.05-9.67,38.73,38.73,0,0,1,15.32-3.22A34.55,34.55,0,0,1,582,1395.55q8.87,9.08,8.87,26.63v67.18H565.77v-44.57q0-17.65-1.68-23.92t-5.75-9.34a16.17,16.17,0,0,0-10-3.08,18.94,18.94,0,0,0-13.32,5.14q-5.55,5.13-7.71,14-1.11,4.58-1.12,20.93v40.83H500.83Z"/><path class="cls-3" d="M663.31,1385.09a54,54,0,0,1,27.05,7.19,52.76,52.76,0,0,1,26.86,46.16,53.36,53.36,0,0,1-7.15,26.91,51.43,51.43,0,0,1-19.48,19.57,53.7,53.7,0,0,1-27.18,7.06,50.72,50.72,0,0,1-37.33-15.56q-15.47-15.56-15.46-37.79,0-23.84,17.47-39.71Q643.41,1385.09,663.31,1385.09Zm.42,24a26.26,26.26,0,0,0-19.79,8.27q-7.91,8.27-7.91,21.16,0,13.28,7.82,21.49t19.79,8.23a26.45,26.45,0,0,0,19.93-8.32q8-8.31,8-21.4t-7.82-21.25Q675.9,1409.11,663.73,1409.1Z"/><path class="cls-3" d="M763.38,1387.71v11.21a47.85,47.85,0,0,1,15-10.37,42.89,42.89,0,0,1,17.19-3.46q19.9,0,33.82,15t13.93,38.59q0,22.71-14.39,38T794.77,1492a42.51,42.51,0,0,1-16.35-3.13,50,50,0,0,1-15-10.23v47.93H738.06V1387.71Zm26.82,20.93a26.63,26.63,0,0,0-20,8.22q-7.94,8.22-7.94,21.49,0,13.55,7.94,21.91a26.42,26.42,0,0,0,20,8.36,25.9,25.9,0,0,0,19.66-8.5q8-8.5,8-21.68T810,1417A26,26,0,0,0,790.2,1408.64Z"/><text class="cls-4" transform="translate(226 1580)">your universal shopping</text><path class="cls-2" d="M357.64,1164.42c21.13,11.51,44.14,16.17,67.79,17.55,41.85,2.44,82.84-3.06,123.32-13.87a511.83,511.83,0,0,0,95.47-36.3c24.48-12.14,47.79-26.14,69.4-43,20.2-15.76,39.2-32.61,52.65-54.75,3.94-6.48,8.41-12.86,9.69-20.65.31-1.85,1.62-4.28-.59-5.33s-3.2,1.6-4.34,3c-5.44,6.74-11.37,12.94-18.65,17.77-3.92,2.6-5.53,1.35-6.08-3q-7.15-57.14-14.4-114.26c-1-8-1.83-8.86-9.9-8.86-23,0-45.92-.13-68.88.06-5.21,0-8-1.86-9.24-6.88-1.14-4.54-1.87-9.2-3.93-13.53-13.69-28.77-37.26-42.19-68.23-44.35-9.21-.65-18.36,1-27.6.22-15.21-1.29-30.25-.12-44.42,6.15-22.85,10.11-37.16,27.47-43.21,51.7-.92,3.69-2.69,6-7.25,6.17-6.66.3-13.29.22-19.93.16-4.63-.05-8.47.62-10.72,5.95-2.43,5.74-7.26,9.07-14.1,8.5-3.31-.27-6.67,0-10,0s-4.95,1.59-5.16,5c-1.13,18.38-2.42,36.75-3.47,55.14-1,17.61-1.32,35.27-2.8,52.84-3.38,40.24-4.88,80.6-7.69,120.87-.4,5.79-2.73,7-7.72,6.45-6.67-.72-12.93-3.07-20.06-4.75C348.86,1158.17,351.43,1161,357.64,1164.42ZM615.94,877a43.61,43.61,0,0,1,9.87,19.05c.6,2.52,1.07,6.07-3,6.37-3.83.29-9.43,2-10.32-3.63-2.07-13-8.48-23.74-15.71-34.23a8.81,8.81,0,0,1-.46-2.38C604.51,865.72,610.55,871,615.94,877ZM507.45,897.26c4.9-21,19.56-32.09,38.56-39,8-2.9,15,1.73,21,5.14,12,6.85,21.66,16.69,25.88,30.62,2.21,7.32,1.28,8.63-6.46,8.66-12.14,0-24.28,0-36.42,0v0c-12.73,0-25.46-.09-38.18,0C507.62,902.81,506.41,901.73,507.45,897.26Zm-33-.09c5.38-15.44,14.58-27.66,30.09-34.41-4.86,8.3-10.21,16.13-13.23,25.29a39.44,39.44,0,0,0-2.09,7.26c-.9,6.82-5.94,9.62-12.54,7.17C474,901.47,473.78,899.17,474.48,897.17Z"/><path class="cls-3" d="M777.29,951.29c-3.71-2.09-6.88-5.95-12.14-5.16.79,2.69,2.88,4,4.52,5.54,14.06,13.63,19.66,30.31,17.76,49.6-2,20.39-11.21,38-22.94,54.1-21,28.94-48.21,51.45-78,70.85a473.34,473.34,0,0,1-116.7,55c-52.63,16.62-106.11,26.78-161.63,19.39-24.27-3.23-47.23-10.16-66.46-26.1-16.12-13.34-22.84-30.76-21.19-51.64a94.07,94.07,0,0,1,5.74-25.5c-1.72,1.22-2.33,1.44-2.6,1.88-8.32,13.12-16,26.59-19.84,41.79-7.85,31.36-3.18,59.56,21.53,82.49,9.62,8.92,21,15.06,32.72,20.62,2.44,1.15,4.78,1.86,4.48,5.78-1.29,16.41-1.9,32.88-3.28,49.28-.48,5.58,1.58,6.78,6.5,6.74,18.41-.15,36.83,0,55.24,0q144.84,0,289.67.09a23.35,23.35,0,0,0,12.85-3.36c13.42-8.35,27.18-15.71,43.74-15.15,4.52.16,5.92-2.37,5.3-7-6-44.3-11.76-88.63-17.7-132.93-.47-3.45.15-6.07,2.78-8.41,4.55-4,9.29-7.92,13.34-12.42,15.9-17.66,31.23-35.72,41.34-57.59,9.44-20.44,14.5-41.48,9.58-64C816.33,979.7,799.06,963.52,777.29,951.29Z"/><path class="cls-5" d="M762.82,1278.24s-42.56,21.87-40.79,18.33S742.13,1134,742.13,1134"/></svg>